<mxfile host="Electron" modified="2024-04-30T11:48:55.772Z" agent="Mozilla/5.0 (Windows NT 10.0; Win64; x64) AppleWebKit/537.36 (KHTML, like Gecko) draw.io/24.2.5 Chrome/120.0.6099.109 Electron/28.1.0 Safari/537.36" etag="vRo2mkuUhA6JKTwraR1N" version="24.2.5" type="device">
  <diagram name="Page-1" id="74e2e168-ea6b-b213-b513-2b3c1d86103e">
    <mxGraphModel dx="2159" dy="743" grid="1" gridSize="10" guides="1" tooltips="1" connect="1" arrows="1" fold="1" page="1" pageScale="1" pageWidth="1100" pageHeight="850" background="#ffffff" math="0" shadow="0">
      <root>
        <mxCell id="0" />
        <mxCell id="1" parent="0" />
        <mxCell id="1veOBJNJqkEh7IiDin2e-5" style="edgeStyle=orthogonalEdgeStyle;rounded=1;html=1;labelBackgroundColor=none;startArrow=none;startFill=0;startSize=5;endArrow=classicThin;endFill=1;endSize=5;jettySize=auto;orthogonalLoop=1;strokeColor=#FF8000;strokeWidth=1;fontFamily=Verdana;fontSize=8;fontColor=#000000;exitX=1;exitY=0.5;exitDx=0;exitDy=0;" parent="1" source="1veOBJNJqkEh7IiDin2e-7" edge="1">
          <mxGeometry relative="1" as="geometry">
            <mxPoint x="330" y="128.4999999999999" as="targetPoint" />
            <mxPoint x="190" y="128.4999999999999" as="sourcePoint" />
          </mxGeometry>
        </mxCell>
        <mxCell id="1veOBJNJqkEh7IiDin2e-6" value="" style="text;html=1;resizable=0;points=[];align=center;verticalAlign=middle;labelBackgroundColor=#ffffff;fillColor=#FFB366;" parent="1veOBJNJqkEh7IiDin2e-5" vertex="1" connectable="0">
          <mxGeometry x="-0.3054" y="2" relative="1" as="geometry">
            <mxPoint x="-5.5" y="92" as="offset" />
          </mxGeometry>
        </mxCell>
        <mxCell id="1veOBJNJqkEh7IiDin2e-9" value="&lt;span style=&quot;font-family: &amp;#34;verdana&amp;#34; ; font-size: 10.6667px ; white-space: normal&quot;&gt;Submit for&lt;/span&gt;&lt;br style=&quot;font-family: &amp;#34;verdana&amp;#34; ; font-size: 10.6667px ; white-space: normal&quot;&gt;&lt;span style=&quot;font-family: &amp;#34;verdana&amp;#34; ; font-size: 10.6667px ; white-space: normal&quot;&gt;Execution&lt;/span&gt;" style="text;html=1;resizable=0;points=[];align=center;verticalAlign=middle;labelBackgroundColor=#ffffff;strokeColor=#FF8000;" parent="1veOBJNJqkEh7IiDin2e-5" vertex="1" connectable="0">
          <mxGeometry x="-0.1854" y="-2" relative="1" as="geometry">
            <mxPoint x="24" y="-1" as="offset" />
          </mxGeometry>
        </mxCell>
        <mxCell id="1veOBJNJqkEh7IiDin2e-7" value="In Work" style="rounded=1;whiteSpace=wrap;html=1;" parent="1" vertex="1">
          <mxGeometry x="50" y="99" width="120" height="60" as="geometry" />
        </mxCell>
        <mxCell id="1veOBJNJqkEh7IiDin2e-13" value="" style="edgeStyle=orthogonalEdgeStyle;rounded=0;orthogonalLoop=1;jettySize=auto;html=1;strokeColor=#FF8000;" parent="1" source="1veOBJNJqkEh7IiDin2e-8" target="1veOBJNJqkEh7IiDin2e-12" edge="1">
          <mxGeometry relative="1" as="geometry" />
        </mxCell>
        <mxCell id="1veOBJNJqkEh7IiDin2e-14" value="&lt;span style=&quot;font-family: &amp;#34;verdana&amp;#34; ; font-size: 10.6667px ; white-space: normal&quot;&gt;Ready for &lt;br&gt;Execution&lt;/span&gt;" style="text;html=1;resizable=0;points=[];align=center;verticalAlign=middle;labelBackgroundColor=#ffffff;" parent="1veOBJNJqkEh7IiDin2e-13" vertex="1" connectable="0">
          <mxGeometry x="-0.694" y="1" relative="1" as="geometry">
            <mxPoint x="25" y="1" as="offset" />
          </mxGeometry>
        </mxCell>
        <mxCell id="1veOBJNJqkEh7IiDin2e-44" style="edgeStyle=orthogonalEdgeStyle;rounded=0;orthogonalLoop=1;jettySize=auto;html=1;exitX=0;exitY=0.75;exitDx=0;exitDy=0;entryX=1;entryY=0.75;entryDx=0;entryDy=0;strokeColor=#000000;" parent="1" source="1veOBJNJqkEh7IiDin2e-8" target="1veOBJNJqkEh7IiDin2e-7" edge="1">
          <mxGeometry relative="1" as="geometry">
            <Array as="points">
              <mxPoint x="320" y="144" />
              <mxPoint x="320" y="230" />
              <mxPoint x="190" y="230" />
              <mxPoint x="190" y="144" />
            </Array>
          </mxGeometry>
        </mxCell>
        <mxCell id="1veOBJNJqkEh7IiDin2e-45" value="Demote for&amp;nbsp;&lt;br&gt;Edit" style="text;html=1;resizable=0;points=[];align=center;verticalAlign=middle;labelBackgroundColor=#ffffff;" parent="1veOBJNJqkEh7IiDin2e-44" vertex="1" connectable="0">
          <mxGeometry x="-0.1369" y="-1" relative="1" as="geometry">
            <mxPoint x="-23" y="1" as="offset" />
          </mxGeometry>
        </mxCell>
        <mxCell id="1veOBJNJqkEh7IiDin2e-8" value="Approve for Execution" style="rounded=1;whiteSpace=wrap;html=1;" parent="1" vertex="1">
          <mxGeometry x="330" y="99" width="120" height="60" as="geometry" />
        </mxCell>
        <mxCell id="1veOBJNJqkEh7IiDin2e-21" value="" style="edgeStyle=orthogonalEdgeStyle;rounded=0;orthogonalLoop=1;jettySize=auto;html=1;strokeColor=#FF9933;exitX=1;exitY=0.5;exitDx=0;exitDy=0;" parent="1" source="nGkeoCvwHN5AzCZAQjQk-1" target="1veOBJNJqkEh7IiDin2e-20" edge="1">
          <mxGeometry relative="1" as="geometry">
            <mxPoint x="850" y="129" as="sourcePoint" />
          </mxGeometry>
        </mxCell>
        <mxCell id="1veOBJNJqkEh7IiDin2e-22" value="Submit for &lt;br&gt;Result approval" style="text;html=1;resizable=0;points=[];align=center;verticalAlign=middle;labelBackgroundColor=#ffffff;" parent="1veOBJNJqkEh7IiDin2e-21" vertex="1" connectable="0">
          <mxGeometry x="0.0125" y="8" relative="1" as="geometry">
            <mxPoint x="-1" y="-22" as="offset" />
          </mxGeometry>
        </mxCell>
        <mxCell id="1veOBJNJqkEh7IiDin2e-41" style="edgeStyle=orthogonalEdgeStyle;rounded=0;orthogonalLoop=1;jettySize=auto;html=1;exitX=1;exitY=0.75;exitDx=0;exitDy=0;entryX=0.213;entryY=-0.031;entryDx=0;entryDy=0;entryPerimeter=0;strokeColor=#FF8000;" parent="1" source="1veOBJNJqkEh7IiDin2e-12" target="1veOBJNJqkEh7IiDin2e-23" edge="1">
          <mxGeometry relative="1" as="geometry">
            <Array as="points">
              <mxPoint x="680" y="145" />
              <mxPoint x="680" y="220" />
              <mxPoint x="865" y="220" />
            </Array>
          </mxGeometry>
        </mxCell>
        <mxCell id="1veOBJNJqkEh7IiDin2e-42" value="Abort" style="text;html=1;resizable=0;points=[];align=center;verticalAlign=middle;labelBackgroundColor=#ffffff;" parent="1veOBJNJqkEh7IiDin2e-41" vertex="1" connectable="0">
          <mxGeometry x="-0.3681" y="46" relative="1" as="geometry">
            <mxPoint x="4.5" y="46" as="offset" />
          </mxGeometry>
        </mxCell>
        <mxCell id="nGkeoCvwHN5AzCZAQjQk-2" value="" style="edgeStyle=orthogonalEdgeStyle;rounded=0;orthogonalLoop=1;jettySize=auto;html=1;" edge="1" parent="1" source="1veOBJNJqkEh7IiDin2e-12" target="nGkeoCvwHN5AzCZAQjQk-1">
          <mxGeometry relative="1" as="geometry" />
        </mxCell>
        <mxCell id="nGkeoCvwHN5AzCZAQjQk-3" value="Start&lt;div&gt;Execution&lt;/div&gt;" style="edgeLabel;html=1;align=center;verticalAlign=middle;resizable=0;points=[];" vertex="1" connectable="0" parent="nGkeoCvwHN5AzCZAQjQk-2">
          <mxGeometry x="-0.2319" y="-4" relative="1" as="geometry">
            <mxPoint x="6" y="-24" as="offset" />
          </mxGeometry>
        </mxCell>
        <mxCell id="1veOBJNJqkEh7IiDin2e-12" value="Ready for Execution" style="rounded=1;whiteSpace=wrap;html=1;" parent="1" vertex="1">
          <mxGeometry x="530" y="100" width="120" height="60" as="geometry" />
        </mxCell>
        <mxCell id="1veOBJNJqkEh7IiDin2e-24" value="" style="edgeStyle=orthogonalEdgeStyle;rounded=0;orthogonalLoop=1;jettySize=auto;html=1;strokeColor=#FF9933;exitX=0.25;exitY=1;exitDx=0;exitDy=0;" parent="1" source="1veOBJNJqkEh7IiDin2e-20" target="1veOBJNJqkEh7IiDin2e-23" edge="1">
          <mxGeometry relative="1" as="geometry" />
        </mxCell>
        <mxCell id="1veOBJNJqkEh7IiDin2e-25" value="Reject/Abort" style="text;html=1;resizable=0;points=[];align=center;verticalAlign=middle;labelBackgroundColor=#ffffff;" parent="1veOBJNJqkEh7IiDin2e-24" vertex="1" connectable="0">
          <mxGeometry x="-0.2879" y="2" relative="1" as="geometry">
            <mxPoint x="-1.5" y="72" as="offset" />
          </mxGeometry>
        </mxCell>
        <mxCell id="1veOBJNJqkEh7IiDin2e-33" style="edgeStyle=orthogonalEdgeStyle;rounded=0;orthogonalLoop=1;jettySize=auto;html=1;exitX=1;exitY=0.75;exitDx=0;exitDy=0;strokeColor=#000000;entryX=1;entryY=0.25;entryDx=0;entryDy=0;" parent="1" source="1veOBJNJqkEh7IiDin2e-20" target="1veOBJNJqkEh7IiDin2e-28" edge="1">
          <mxGeometry relative="1" as="geometry">
            <mxPoint x="969.5" y="391" as="targetPoint" />
            <Array as="points">
              <mxPoint x="1070" y="145" />
              <mxPoint x="1070" y="508" />
            </Array>
          </mxGeometry>
        </mxCell>
        <mxCell id="1veOBJNJqkEh7IiDin2e-35" value="Send back &lt;br&gt;for re-evaluate" style="text;html=1;resizable=0;points=[];align=center;verticalAlign=middle;labelBackgroundColor=#ffffff;" parent="1veOBJNJqkEh7IiDin2e-33" vertex="1" connectable="0">
          <mxGeometry x="0.3" relative="1" as="geometry">
            <mxPoint x="9.5" y="73.5" as="offset" />
          </mxGeometry>
        </mxCell>
        <mxCell id="1veOBJNJqkEh7IiDin2e-37" value="" style="edgeStyle=orthogonalEdgeStyle;rounded=0;orthogonalLoop=1;jettySize=auto;html=1;strokeColor=#FF8000;" parent="1" source="1veOBJNJqkEh7IiDin2e-20" target="1veOBJNJqkEh7IiDin2e-36" edge="1">
          <mxGeometry relative="1" as="geometry" />
        </mxCell>
        <mxCell id="1veOBJNJqkEh7IiDin2e-38" value="Executed" style="text;html=1;resizable=0;points=[];align=center;verticalAlign=middle;labelBackgroundColor=#ffffff;" parent="1veOBJNJqkEh7IiDin2e-37" vertex="1" connectable="0">
          <mxGeometry x="0.1257" y="2" relative="1" as="geometry">
            <mxPoint x="-10.5" y="2" as="offset" />
          </mxGeometry>
        </mxCell>
        <mxCell id="1veOBJNJqkEh7IiDin2e-20" value="Test Result &lt;br&gt;Approval" style="rounded=1;whiteSpace=wrap;html=1;" parent="1" vertex="1">
          <mxGeometry x="910" y="99" width="120" height="60" as="geometry" />
        </mxCell>
        <mxCell id="1veOBJNJqkEh7IiDin2e-48" style="edgeStyle=orthogonalEdgeStyle;rounded=0;orthogonalLoop=1;jettySize=auto;html=1;exitX=0.5;exitY=1;exitDx=0;exitDy=0;entryX=0.5;entryY=0;entryDx=0;entryDy=0;strokeColor=#000000;" parent="1" source="1veOBJNJqkEh7IiDin2e-36" target="1veOBJNJqkEh7IiDin2e-46" edge="1">
          <mxGeometry relative="1" as="geometry">
            <Array as="points">
              <mxPoint x="1230" y="160" />
              <mxPoint x="1230" y="258" />
              <mxPoint x="1210" y="258" />
            </Array>
          </mxGeometry>
        </mxCell>
        <mxCell id="1veOBJNJqkEh7IiDin2e-49" value="Re-execute" style="text;html=1;resizable=0;points=[];align=center;verticalAlign=middle;labelBackgroundColor=#ffffff;" parent="1veOBJNJqkEh7IiDin2e-48" vertex="1" connectable="0">
          <mxGeometry x="0.3103" y="1" relative="1" as="geometry">
            <mxPoint as="offset" />
          </mxGeometry>
        </mxCell>
        <mxCell id="1veOBJNJqkEh7IiDin2e-62" style="edgeStyle=orthogonalEdgeStyle;rounded=0;orthogonalLoop=1;jettySize=auto;html=1;exitX=0.5;exitY=0;exitDx=0;exitDy=0;strokeColor=#330000;entryX=0.468;entryY=-0.013;entryDx=0;entryDy=0;entryPerimeter=0;" parent="1" source="1veOBJNJqkEh7IiDin2e-36" target="1veOBJNJqkEh7IiDin2e-7" edge="1">
          <mxGeometry relative="1" as="geometry">
            <mxPoint x="110" y="60" as="targetPoint" />
            <Array as="points">
              <mxPoint x="1270" y="80" />
              <mxPoint x="106" y="80" />
            </Array>
          </mxGeometry>
        </mxCell>
        <mxCell id="1veOBJNJqkEh7IiDin2e-65" value="Edit" style="text;html=1;resizable=0;points=[];align=center;verticalAlign=middle;labelBackgroundColor=#ffffff;" parent="1veOBJNJqkEh7IiDin2e-62" vertex="1" connectable="0">
          <mxGeometry x="0.0625" y="-1" relative="1" as="geometry">
            <mxPoint as="offset" />
          </mxGeometry>
        </mxCell>
        <mxCell id="1veOBJNJqkEh7IiDin2e-66" style="edgeStyle=orthogonalEdgeStyle;rounded=0;orthogonalLoop=1;jettySize=auto;html=1;exitX=0.75;exitY=1;exitDx=0;exitDy=0;strokeColor=#330000;" parent="1" source="1veOBJNJqkEh7IiDin2e-36" edge="1">
          <mxGeometry relative="1" as="geometry">
            <mxPoint x="910.0000000000002" y="530" as="targetPoint" />
            <Array as="points">
              <mxPoint x="1300" y="530" />
            </Array>
          </mxGeometry>
        </mxCell>
        <mxCell id="1veOBJNJqkEh7IiDin2e-68" value="Re-execute&lt;br&gt;Selectively" style="text;html=1;resizable=0;points=[];align=center;verticalAlign=middle;labelBackgroundColor=#ffffff;" parent="1veOBJNJqkEh7IiDin2e-66" vertex="1" connectable="0">
          <mxGeometry x="0.6791" y="-1" relative="1" as="geometry">
            <mxPoint as="offset" />
          </mxGeometry>
        </mxCell>
        <mxCell id="1veOBJNJqkEh7IiDin2e-36" value="Executed" style="rounded=1;whiteSpace=wrap;html=1;" parent="1" vertex="1">
          <mxGeometry x="1210" y="100" width="120" height="60" as="geometry" />
        </mxCell>
        <mxCell id="1veOBJNJqkEh7IiDin2e-26" style="edgeStyle=orthogonalEdgeStyle;rounded=0;orthogonalLoop=1;jettySize=auto;html=1;exitX=0;exitY=0.5;exitDx=0;exitDy=0;strokeColor=#000000;" parent="1" source="1veOBJNJqkEh7IiDin2e-23" edge="1">
          <mxGeometry relative="1" as="geometry">
            <mxPoint x="110" y="160" as="targetPoint" />
          </mxGeometry>
        </mxCell>
        <mxCell id="1veOBJNJqkEh7IiDin2e-27" value="Edit" style="text;html=1;resizable=0;points=[];align=center;verticalAlign=middle;labelBackgroundColor=#ffffff;" parent="1veOBJNJqkEh7IiDin2e-26" vertex="1" connectable="0">
          <mxGeometry x="-0.0065" y="1" relative="1" as="geometry">
            <mxPoint as="offset" />
          </mxGeometry>
        </mxCell>
        <mxCell id="1veOBJNJqkEh7IiDin2e-29" value="" style="edgeStyle=orthogonalEdgeStyle;rounded=0;orthogonalLoop=1;jettySize=auto;html=1;strokeColor=#000000;" parent="1" source="1veOBJNJqkEh7IiDin2e-23" target="1veOBJNJqkEh7IiDin2e-28" edge="1">
          <mxGeometry relative="1" as="geometry" />
        </mxCell>
        <mxCell id="1veOBJNJqkEh7IiDin2e-30" value="Re-execute &lt;br&gt;Selectively" style="text;html=1;resizable=0;points=[];align=center;verticalAlign=middle;labelBackgroundColor=#ffffff;" parent="1veOBJNJqkEh7IiDin2e-29" vertex="1" connectable="0">
          <mxGeometry x="-0.7534" y="1" relative="1" as="geometry">
            <mxPoint x="-1" y="31.5" as="offset" />
          </mxGeometry>
        </mxCell>
        <mxCell id="1veOBJNJqkEh7IiDin2e-47" value="" style="edgeStyle=orthogonalEdgeStyle;rounded=0;orthogonalLoop=1;jettySize=auto;html=1;strokeColor=#000000;" parent="1" source="1veOBJNJqkEh7IiDin2e-23" target="1veOBJNJqkEh7IiDin2e-46" edge="1">
          <mxGeometry relative="1" as="geometry">
            <Array as="points">
              <mxPoint x="920" y="393" />
              <mxPoint x="920" y="393" />
            </Array>
          </mxGeometry>
        </mxCell>
        <mxCell id="1veOBJNJqkEh7IiDin2e-50" value="Re-execute" style="text;html=1;resizable=0;points=[];align=center;verticalAlign=middle;labelBackgroundColor=#ffffff;" parent="1veOBJNJqkEh7IiDin2e-47" vertex="1" connectable="0">
          <mxGeometry x="0.1907" y="3" relative="1" as="geometry">
            <mxPoint as="offset" />
          </mxGeometry>
        </mxCell>
        <mxCell id="1veOBJNJqkEh7IiDin2e-23" value="&lt;span style=&quot;white-space: nowrap ; background-color: rgb(255 , 255 , 255)&quot;&gt;Aborted&lt;/span&gt;" style="rounded=1;whiteSpace=wrap;html=1;" parent="1" vertex="1">
          <mxGeometry x="839.5" y="353" width="120" height="60" as="geometry" />
        </mxCell>
        <mxCell id="1veOBJNJqkEh7IiDin2e-51" style="edgeStyle=orthogonalEdgeStyle;rounded=0;orthogonalLoop=1;jettySize=auto;html=1;exitX=0;exitY=0.25;exitDx=0;exitDy=0;strokeColor=#000000;" parent="1" source="1veOBJNJqkEh7IiDin2e-46" edge="1">
          <mxGeometry relative="1" as="geometry">
            <mxPoint x="960" y="372" as="targetPoint" />
          </mxGeometry>
        </mxCell>
        <mxCell id="1veOBJNJqkEh7IiDin2e-52" value="Abort" style="text;html=1;resizable=0;points=[];align=center;verticalAlign=middle;labelBackgroundColor=#ffffff;" parent="1veOBJNJqkEh7IiDin2e-51" vertex="1" connectable="0">
          <mxGeometry x="0.3344" y="-2" relative="1" as="geometry">
            <mxPoint x="20" y="-2" as="offset" />
          </mxGeometry>
        </mxCell>
        <mxCell id="1veOBJNJqkEh7IiDin2e-53" style="edgeStyle=orthogonalEdgeStyle;rounded=0;orthogonalLoop=1;jettySize=auto;html=1;exitX=0.25;exitY=0;exitDx=0;exitDy=0;strokeColor=#FF8000;entryX=0.409;entryY=1.001;entryDx=0;entryDy=0;entryPerimeter=0;" parent="1" source="1veOBJNJqkEh7IiDin2e-46" edge="1" target="1veOBJNJqkEh7IiDin2e-20">
          <mxGeometry relative="1" as="geometry">
            <mxPoint x="940" y="170" as="targetPoint" />
            <Array as="points">
              <mxPoint x="1180" y="259" />
              <mxPoint x="960" y="259" />
              <mxPoint x="960" y="159" />
            </Array>
          </mxGeometry>
        </mxCell>
        <mxCell id="1veOBJNJqkEh7IiDin2e-46" value="&lt;span style=&quot;white-space: nowrap ; background-color: rgb(255 , 255 , 255)&quot;&gt;Re-execute&lt;/span&gt;" style="rounded=1;whiteSpace=wrap;html=1;" parent="1" vertex="1">
          <mxGeometry x="1150" y="356.5" width="120" height="60" as="geometry" />
        </mxCell>
        <mxCell id="1veOBJNJqkEh7IiDin2e-31" style="edgeStyle=orthogonalEdgeStyle;rounded=0;orthogonalLoop=1;jettySize=auto;html=1;exitX=0;exitY=0.5;exitDx=0;exitDy=0;entryX=0;entryY=0.75;entryDx=0;entryDy=0;strokeColor=#FF8000;" parent="1" source="1veOBJNJqkEh7IiDin2e-28" target="1veOBJNJqkEh7IiDin2e-20" edge="1">
          <mxGeometry relative="1" as="geometry">
            <Array as="points">
              <mxPoint x="840" y="145" />
              <mxPoint x="910" y="145" />
            </Array>
          </mxGeometry>
        </mxCell>
        <mxCell id="1veOBJNJqkEh7IiDin2e-32" value="Submit for&amp;nbsp;&lt;br&gt;Result approval" style="text;html=1;resizable=0;points=[];align=center;verticalAlign=middle;labelBackgroundColor=#ffffff;" parent="1veOBJNJqkEh7IiDin2e-31" vertex="1" connectable="0">
          <mxGeometry x="0.4286" y="-3" relative="1" as="geometry">
            <mxPoint x="-3.5" y="65.5" as="offset" />
          </mxGeometry>
        </mxCell>
        <mxCell id="1veOBJNJqkEh7IiDin2e-28" value="&lt;span style=&quot;white-space: nowrap ; background-color: rgb(255 , 255 , 255)&quot;&gt;Re-execute&amp;nbsp;&lt;/span&gt;&lt;br style=&quot;white-space: nowrap&quot;&gt;&lt;span style=&quot;white-space: nowrap ; background-color: rgb(255 , 255 , 255)&quot;&gt;Selectively&lt;/span&gt;" style="rounded=1;whiteSpace=wrap;html=1;" parent="1" vertex="1">
          <mxGeometry x="839.5" y="493" width="120" height="60" as="geometry" />
        </mxCell>
        <mxCell id="1veOBJNJqkEh7IiDin2e-10" value="" style="endArrow=classic;html=1;strokeColor=#FF8000;" parent="1" edge="1">
          <mxGeometry width="50" height="50" relative="1" as="geometry">
            <mxPoint x="20" y="20" as="sourcePoint" />
            <mxPoint x="80" y="20" as="targetPoint" />
          </mxGeometry>
        </mxCell>
        <mxCell id="1veOBJNJqkEh7IiDin2e-11" value="prompt" style="text;html=1;resizable=0;points=[];align=center;verticalAlign=middle;labelBackgroundColor=#ffffff;" parent="1veOBJNJqkEh7IiDin2e-10" vertex="1" connectable="0">
          <mxGeometry x="-0.5" y="-3" relative="1" as="geometry">
            <mxPoint x="65" y="-3" as="offset" />
          </mxGeometry>
        </mxCell>
        <mxCell id="1veOBJNJqkEh7IiDin2e-39" value="" style="endArrow=classic;html=1;strokeColor=#000000;" parent="1" edge="1">
          <mxGeometry width="50" height="50" relative="1" as="geometry">
            <mxPoint x="20" y="40" as="sourcePoint" />
            <mxPoint x="80" y="40" as="targetPoint" />
          </mxGeometry>
        </mxCell>
        <mxCell id="1veOBJNJqkEh7IiDin2e-40" value="no prompt" style="text;html=1;resizable=0;points=[];align=center;verticalAlign=middle;labelBackgroundColor=#ffffff;" parent="1veOBJNJqkEh7IiDin2e-39" vertex="1" connectable="0">
          <mxGeometry x="-0.5" y="-3" relative="1" as="geometry">
            <mxPoint x="75" y="-3" as="offset" />
          </mxGeometry>
        </mxCell>
        <mxCell id="1veOBJNJqkEh7IiDin2e-54" value="&lt;span style=&quot;text-align: center ; background-color: rgb(255 , 255 , 255)&quot;&gt;Submit for&amp;nbsp;&lt;/span&gt;&lt;br style=&quot;text-align: center&quot;&gt;&lt;span style=&quot;text-align: center ; background-color: rgb(255 , 255 , 255)&quot;&gt;Result approval&lt;/span&gt;" style="text;html=1;resizable=0;points=[];autosize=1;align=left;verticalAlign=top;spacingTop=-4;" parent="1" vertex="1">
          <mxGeometry x="970" y="240" width="100" height="30" as="geometry" />
        </mxCell>
        <mxCell id="1veOBJNJqkEh7IiDin2e-56" value="" style="edgeStyle=orthogonalEdgeStyle;rounded=0;orthogonalLoop=1;jettySize=auto;html=1;strokeColor=#000000;entryX=0.347;entryY=1.038;entryDx=0;entryDy=0;entryPerimeter=0;" parent="1" target="1veOBJNJqkEh7IiDin2e-28" edge="1">
          <mxGeometry relative="1" as="geometry">
            <mxPoint x="941" y="555" as="sourcePoint" />
            <mxPoint x="893.1666666666667" y="565.1666666666667" as="targetPoint" />
            <Array as="points">
              <mxPoint x="941" y="623" />
              <mxPoint x="881" y="623" />
            </Array>
          </mxGeometry>
        </mxCell>
        <mxCell id="1veOBJNJqkEh7IiDin2e-57" value="Start&lt;br&gt;Execution" style="text;html=1;resizable=0;points=[];align=center;verticalAlign=middle;labelBackgroundColor=#ffffff;" parent="1veOBJNJqkEh7IiDin2e-56" vertex="1" connectable="0">
          <mxGeometry x="0.082" y="-3" relative="1" as="geometry">
            <mxPoint x="8.5" y="12" as="offset" />
          </mxGeometry>
        </mxCell>
        <mxCell id="1veOBJNJqkEh7IiDin2e-58" value="" style="edgeStyle=orthogonalEdgeStyle;rounded=0;orthogonalLoop=1;jettySize=auto;html=1;strokeColor=#000000;" parent="1" edge="1">
          <mxGeometry relative="1" as="geometry">
            <mxPoint x="1250" y="420" as="sourcePoint" />
            <mxPoint x="1190" y="420" as="targetPoint" />
            <Array as="points">
              <mxPoint x="1250" y="488" />
              <mxPoint x="1190" y="488" />
            </Array>
          </mxGeometry>
        </mxCell>
        <mxCell id="1veOBJNJqkEh7IiDin2e-59" value="Start&lt;br&gt;Execution" style="text;html=1;resizable=0;points=[];align=center;verticalAlign=middle;labelBackgroundColor=#ffffff;" parent="1veOBJNJqkEh7IiDin2e-58" vertex="1" connectable="0">
          <mxGeometry x="0.082" y="-3" relative="1" as="geometry">
            <mxPoint x="8.5" y="12" as="offset" />
          </mxGeometry>
        </mxCell>
        <mxCell id="1veOBJNJqkEh7IiDin2e-71" value="" style="edgeStyle=orthogonalEdgeStyle;rounded=0;orthogonalLoop=1;jettySize=auto;html=1;strokeColor=#330000;entryX=0.669;entryY=-0.067;entryDx=0;entryDy=0;entryPerimeter=0;" parent="1" source="1veOBJNJqkEh7IiDin2e-69" target="1veOBJNJqkEh7IiDin2e-69" edge="1">
          <mxGeometry relative="1" as="geometry">
            <mxPoint x="360" y="640" as="targetPoint" />
            <Array as="points">
              <mxPoint x="120" y="550" />
              <mxPoint x="140" y="550" />
            </Array>
          </mxGeometry>
        </mxCell>
        <mxCell id="1veOBJNJqkEh7IiDin2e-72" value="(Re)Assign&lt;br&gt;Owner" style="text;html=1;resizable=0;points=[];align=center;verticalAlign=middle;labelBackgroundColor=#ffffff;" parent="1veOBJNJqkEh7IiDin2e-71" vertex="1" connectable="0">
          <mxGeometry x="-0.1167" y="-1" relative="1" as="geometry">
            <mxPoint x="9.5" y="19" as="offset" />
          </mxGeometry>
        </mxCell>
        <mxCell id="1veOBJNJqkEh7IiDin2e-73" style="edgeStyle=orthogonalEdgeStyle;rounded=0;orthogonalLoop=1;jettySize=auto;html=1;exitX=1;exitY=0.25;exitDx=0;exitDy=0;strokeColor=#009900;fillColor=#00FF00;" parent="1" source="1veOBJNJqkEh7IiDin2e-69" edge="1">
          <mxGeometry relative="1" as="geometry">
            <mxPoint x="370" y="625" as="targetPoint" />
          </mxGeometry>
        </mxCell>
        <mxCell id="1veOBJNJqkEh7IiDin2e-74" value="Submit for &lt;br&gt;Execution" style="text;html=1;resizable=0;points=[];align=center;verticalAlign=middle;labelBackgroundColor=#ffffff;" parent="1veOBJNJqkEh7IiDin2e-73" vertex="1" connectable="0">
          <mxGeometry x="0.3451" y="2" relative="1" as="geometry">
            <mxPoint x="-48" y="7" as="offset" />
          </mxGeometry>
        </mxCell>
        <mxCell id="1veOBJNJqkEh7IiDin2e-75" style="edgeStyle=orthogonalEdgeStyle;rounded=0;orthogonalLoop=1;jettySize=auto;html=1;exitX=0.75;exitY=1;exitDx=0;exitDy=0;strokeColor=#330000;" parent="1" source="1veOBJNJqkEh7IiDin2e-69" edge="1">
          <mxGeometry relative="1" as="geometry">
            <mxPoint x="150" y="670" as="targetPoint" />
            <Array as="points">
              <mxPoint x="170" y="670" />
              <mxPoint x="170" y="720" />
              <mxPoint x="150" y="720" />
              <mxPoint x="150" y="670" />
            </Array>
          </mxGeometry>
        </mxCell>
        <mxCell id="1veOBJNJqkEh7IiDin2e-76" value="Clear Effiective&lt;br&gt;Result&amp;nbsp;" style="text;html=1;resizable=0;points=[];align=center;verticalAlign=middle;labelBackgroundColor=#ffffff;" parent="1veOBJNJqkEh7IiDin2e-75" vertex="1" connectable="0">
          <mxGeometry x="0.3887" y="-21" relative="1" as="geometry">
            <mxPoint x="8.5" y="-12.5" as="offset" />
          </mxGeometry>
        </mxCell>
        <mxCell id="1veOBJNJqkEh7IiDin2e-78" value="" style="edgeStyle=orthogonalEdgeStyle;rounded=0;orthogonalLoop=1;jettySize=auto;html=1;strokeColor=#330000;entryX=0.211;entryY=1.031;entryDx=0;entryDy=0;entryPerimeter=0;" parent="1" source="1veOBJNJqkEh7IiDin2e-69" target="1veOBJNJqkEh7IiDin2e-69" edge="1">
          <mxGeometry relative="1" as="geometry">
            <mxPoint x="120" y="750" as="targetPoint" />
            <Array as="points">
              <mxPoint x="120" y="720" />
              <mxPoint x="85" y="720" />
            </Array>
          </mxGeometry>
        </mxCell>
        <mxCell id="1veOBJNJqkEh7IiDin2e-79" value="Set Effective &lt;br&gt;Result" style="text;html=1;resizable=0;points=[];align=center;verticalAlign=middle;labelBackgroundColor=#ffffff;" parent="1veOBJNJqkEh7IiDin2e-78" vertex="1" connectable="0">
          <mxGeometry x="-0.4966" y="-7" relative="1" as="geometry">
            <mxPoint x="-43.5" y="-3.5" as="offset" />
          </mxGeometry>
        </mxCell>
        <mxCell id="1veOBJNJqkEh7IiDin2e-80" style="edgeStyle=orthogonalEdgeStyle;rounded=0;orthogonalLoop=1;jettySize=auto;html=1;exitX=0.25;exitY=0;exitDx=0;exitDy=0;strokeColor=#330000;entryX=0.044;entryY=-0.039;entryDx=0;entryDy=0;entryPerimeter=0;" parent="1" source="1veOBJNJqkEh7IiDin2e-69" target="1veOBJNJqkEh7IiDin2e-69" edge="1">
          <mxGeometry relative="1" as="geometry">
            <mxPoint x="80" y="510" as="targetPoint" />
            <Array as="points">
              <mxPoint x="90" y="530" />
              <mxPoint x="65" y="530" />
            </Array>
          </mxGeometry>
        </mxCell>
        <mxCell id="1veOBJNJqkEh7IiDin2e-81" value="Assign &lt;br&gt;to Me" style="text;html=1;resizable=0;points=[];align=center;verticalAlign=middle;labelBackgroundColor=#ffffff;" parent="1veOBJNJqkEh7IiDin2e-80" vertex="1" connectable="0">
          <mxGeometry x="0.3881" y="1" relative="1" as="geometry">
            <mxPoint as="offset" />
          </mxGeometry>
        </mxCell>
        <mxCell id="1veOBJNJqkEh7IiDin2e-69" value="In Work" style="rounded=1;whiteSpace=wrap;html=1;strokeColor=#000000;fillColor=none;" parent="1" vertex="1">
          <mxGeometry x="60" y="610" width="120" height="60" as="geometry" />
        </mxCell>
        <mxCell id="1veOBJNJqkEh7IiDin2e-85" value="" style="edgeStyle=orthogonalEdgeStyle;rounded=0;orthogonalLoop=1;jettySize=auto;html=1;strokeColor=#009900;" parent="1" source="1veOBJNJqkEh7IiDin2e-82" edge="1">
          <mxGeometry relative="1" as="geometry">
            <mxPoint x="429.5" y="918.5" as="targetPoint" />
          </mxGeometry>
        </mxCell>
        <mxCell id="1veOBJNJqkEh7IiDin2e-86" value="Ready for&amp;nbsp;&lt;br&gt;Execution" style="text;html=1;resizable=0;points=[];align=center;verticalAlign=middle;labelBackgroundColor=#ffffff;" parent="1veOBJNJqkEh7IiDin2e-85" vertex="1" connectable="0">
          <mxGeometry x="-0.3759" y="-1" relative="1" as="geometry">
            <mxPoint as="offset" />
          </mxGeometry>
        </mxCell>
        <mxCell id="1veOBJNJqkEh7IiDin2e-87" style="edgeStyle=orthogonalEdgeStyle;rounded=0;orthogonalLoop=1;jettySize=auto;html=1;exitX=0.75;exitY=0;exitDx=0;exitDy=0;strokeColor=#330000;entryX=0.5;entryY=0;entryDx=0;entryDy=0;" parent="1" source="1veOBJNJqkEh7IiDin2e-82" target="1veOBJNJqkEh7IiDin2e-82" edge="1">
          <mxGeometry relative="1" as="geometry">
            <mxPoint x="189.5" y="828.5" as="targetPoint" />
            <Array as="points">
              <mxPoint x="219.5" y="808.5" />
              <mxPoint x="189.5" y="808.5" />
            </Array>
          </mxGeometry>
        </mxCell>
        <mxCell id="1veOBJNJqkEh7IiDin2e-88" value="(Re)Assign &lt;br&gt;Test lead" style="text;html=1;resizable=0;points=[];align=center;verticalAlign=middle;labelBackgroundColor=#ffffff;" parent="1veOBJNJqkEh7IiDin2e-87" vertex="1" connectable="0">
          <mxGeometry x="-0.3684" relative="1" as="geometry">
            <mxPoint as="offset" />
          </mxGeometry>
        </mxCell>
        <mxCell id="1veOBJNJqkEh7IiDin2e-89" style="edgeStyle=orthogonalEdgeStyle;rounded=0;orthogonalLoop=1;jettySize=auto;html=1;exitX=0.25;exitY=0;exitDx=0;exitDy=0;strokeColor=#330000;" parent="1" edge="1">
          <mxGeometry relative="1" as="geometry">
            <mxPoint x="130" y="1100" as="targetPoint" />
            <mxPoint x="170" y="1100" as="sourcePoint" />
            <Array as="points">
              <mxPoint x="170" y="1020" />
              <mxPoint x="120" y="1020" />
              <mxPoint x="120" y="1100" />
            </Array>
          </mxGeometry>
        </mxCell>
        <mxCell id="1veOBJNJqkEh7IiDin2e-90" value="(Re)Assign&amp;nbsp;&lt;br&gt;Owner" style="text;html=1;resizable=0;points=[];align=center;verticalAlign=middle;labelBackgroundColor=#ffffff;" parent="1veOBJNJqkEh7IiDin2e-89" vertex="1" connectable="0">
          <mxGeometry x="0.3939" y="1" relative="1" as="geometry">
            <mxPoint as="offset" />
          </mxGeometry>
        </mxCell>
        <mxCell id="1veOBJNJqkEh7IiDin2e-92" value="" style="edgeStyle=orthogonalEdgeStyle;rounded=0;orthogonalLoop=1;jettySize=auto;html=1;strokeColor=#009900;" parent="1" source="1veOBJNJqkEh7IiDin2e-82" edge="1">
          <mxGeometry relative="1" as="geometry">
            <mxPoint x="-0.5" y="918.5" as="targetPoint" />
          </mxGeometry>
        </mxCell>
        <mxCell id="1veOBJNJqkEh7IiDin2e-93" value="Demote for&lt;br&gt;Edit" style="text;html=1;resizable=0;points=[];align=center;verticalAlign=middle;labelBackgroundColor=#ffffff;" parent="1veOBJNJqkEh7IiDin2e-92" vertex="1" connectable="0">
          <mxGeometry x="0.3154" y="3" relative="1" as="geometry">
            <mxPoint as="offset" />
          </mxGeometry>
        </mxCell>
        <mxCell id="1veOBJNJqkEh7IiDin2e-94" style="edgeStyle=orthogonalEdgeStyle;rounded=0;orthogonalLoop=1;jettySize=auto;html=1;exitX=0.25;exitY=1;exitDx=0;exitDy=0;strokeColor=#330000;" parent="1" source="1veOBJNJqkEh7IiDin2e-82" edge="1">
          <mxGeometry relative="1" as="geometry">
            <mxPoint x="199.5" y="948.5" as="targetPoint" />
            <Array as="points">
              <mxPoint x="159.5" y="988.5" />
              <mxPoint x="199.5" y="988.5" />
            </Array>
          </mxGeometry>
        </mxCell>
        <mxCell id="1veOBJNJqkEh7IiDin2e-95" value="Assign to me" style="text;html=1;resizable=0;points=[];align=center;verticalAlign=middle;labelBackgroundColor=#ffffff;" parent="1veOBJNJqkEh7IiDin2e-94" vertex="1" connectable="0">
          <mxGeometry x="-0.4722" y="-2" relative="1" as="geometry">
            <mxPoint as="offset" />
          </mxGeometry>
        </mxCell>
        <mxCell id="1veOBJNJqkEh7IiDin2e-82" value="Approve for Execution" style="rounded=1;whiteSpace=wrap;html=1;strokeColor=#000000;fillColor=none;" parent="1" vertex="1">
          <mxGeometry x="129.5" y="888.5" width="120" height="60" as="geometry" />
        </mxCell>
        <mxCell id="1veOBJNJqkEh7IiDin2e-100" value="" style="edgeStyle=orthogonalEdgeStyle;rounded=0;orthogonalLoop=1;jettySize=auto;html=1;strokeColor=#009900;" parent="1" source="1veOBJNJqkEh7IiDin2e-96" edge="1">
          <mxGeometry relative="1" as="geometry">
            <mxPoint x="190" y="1220" as="targetPoint" />
          </mxGeometry>
        </mxCell>
        <mxCell id="1veOBJNJqkEh7IiDin2e-101" value="Abort" style="text;html=1;resizable=0;points=[];align=center;verticalAlign=middle;labelBackgroundColor=#ffffff;" parent="1veOBJNJqkEh7IiDin2e-100" vertex="1" connectable="0">
          <mxGeometry x="-0.3652" y="-1" relative="1" as="geometry">
            <mxPoint as="offset" />
          </mxGeometry>
        </mxCell>
        <mxCell id="1veOBJNJqkEh7IiDin2e-103" value="" style="edgeStyle=orthogonalEdgeStyle;rounded=0;orthogonalLoop=1;jettySize=auto;html=1;strokeColor=#009900;" parent="1" source="1veOBJNJqkEh7IiDin2e-96" edge="1">
          <mxGeometry relative="1" as="geometry">
            <mxPoint x="420" y="1130" as="targetPoint" />
            <Array as="points">
              <mxPoint x="270" y="1130" />
              <mxPoint x="270" y="1130" />
            </Array>
          </mxGeometry>
        </mxCell>
        <mxCell id="1veOBJNJqkEh7IiDin2e-104" value="Submit for &lt;br&gt;Result Approval" style="text;html=1;resizable=0;points=[];align=center;verticalAlign=middle;labelBackgroundColor=#ffffff;" parent="1veOBJNJqkEh7IiDin2e-103" vertex="1" connectable="0">
          <mxGeometry x="-0.4792" y="11" relative="1" as="geometry">
            <mxPoint x="9.5" y="11" as="offset" />
          </mxGeometry>
        </mxCell>
        <mxCell id="1veOBJNJqkEh7IiDin2e-105" style="edgeStyle=orthogonalEdgeStyle;rounded=0;orthogonalLoop=1;jettySize=auto;html=1;exitX=0.75;exitY=0;exitDx=0;exitDy=0;strokeColor=#330000;entryX=1.004;entryY=0.003;entryDx=0;entryDy=0;entryPerimeter=0;" parent="1" source="1veOBJNJqkEh7IiDin2e-96" target="1veOBJNJqkEh7IiDin2e-96" edge="1">
          <mxGeometry relative="1" as="geometry">
            <mxPoint x="270" y="940" as="targetPoint" />
            <Array as="points">
              <mxPoint x="220" y="1020" />
              <mxPoint x="250" y="1020" />
            </Array>
          </mxGeometry>
        </mxCell>
        <mxCell id="1veOBJNJqkEh7IiDin2e-106" value="Start Execution" style="text;html=1;resizable=0;points=[];align=center;verticalAlign=middle;labelBackgroundColor=#ffffff;" parent="1veOBJNJqkEh7IiDin2e-105" vertex="1" connectable="0">
          <mxGeometry x="0.2314" y="-1" relative="1" as="geometry">
            <mxPoint x="0.5" y="23" as="offset" />
          </mxGeometry>
        </mxCell>
        <mxCell id="1veOBJNJqkEh7IiDin2e-96" value="Ready for Execution" style="rounded=1;whiteSpace=wrap;html=1;strokeColor=#000000;fillColor=none;" parent="1" vertex="1">
          <mxGeometry x="129.5" y="1100" width="120" height="60" as="geometry" />
        </mxCell>
        <mxCell id="1veOBJNJqkEh7IiDin2e-97" style="edgeStyle=orthogonalEdgeStyle;rounded=0;orthogonalLoop=1;jettySize=auto;html=1;exitX=0.25;exitY=0;exitDx=0;exitDy=0;strokeColor=#330000;" parent="1" edge="1">
          <mxGeometry relative="1" as="geometry">
            <mxPoint x="129.5" y="898.5" as="targetPoint" />
            <mxPoint x="169.5" y="898.5" as="sourcePoint" />
            <Array as="points">
              <mxPoint x="169.5" y="818.5" />
              <mxPoint x="119.5" y="818.5" />
              <mxPoint x="119.5" y="898.5" />
            </Array>
          </mxGeometry>
        </mxCell>
        <mxCell id="1veOBJNJqkEh7IiDin2e-98" value="(Re)Assign&amp;nbsp;&lt;br&gt;Owner" style="text;html=1;resizable=0;points=[];align=center;verticalAlign=middle;labelBackgroundColor=#ffffff;" parent="1veOBJNJqkEh7IiDin2e-97" vertex="1" connectable="0">
          <mxGeometry x="0.3939" y="1" relative="1" as="geometry">
            <mxPoint x="-0.5" y="7.5" as="offset" />
          </mxGeometry>
        </mxCell>
        <mxCell id="1veOBJNJqkEh7IiDin2e-109" value="" style="edgeStyle=orthogonalEdgeStyle;rounded=0;orthogonalLoop=1;jettySize=auto;html=1;strokeColor=#009900;" parent="1" source="1veOBJNJqkEh7IiDin2e-107" edge="1">
          <mxGeometry relative="1" as="geometry">
            <mxPoint x="820" y="910" as="targetPoint" />
          </mxGeometry>
        </mxCell>
        <mxCell id="1veOBJNJqkEh7IiDin2e-118" value="Executed" style="text;html=1;resizable=0;points=[];align=center;verticalAlign=middle;labelBackgroundColor=#ffffff;" parent="1veOBJNJqkEh7IiDin2e-109" vertex="1" connectable="0">
          <mxGeometry x="-0.3042" y="1" relative="1" as="geometry">
            <mxPoint as="offset" />
          </mxGeometry>
        </mxCell>
        <mxCell id="1veOBJNJqkEh7IiDin2e-116" style="edgeStyle=orthogonalEdgeStyle;rounded=0;orthogonalLoop=1;jettySize=auto;html=1;exitX=0;exitY=0.75;exitDx=0;exitDy=0;strokeColor=#009900;" parent="1" source="1veOBJNJqkEh7IiDin2e-107" edge="1">
          <mxGeometry relative="1" as="geometry">
            <mxPoint x="480" y="925.1111111111111" as="targetPoint" />
          </mxGeometry>
        </mxCell>
        <mxCell id="1veOBJNJqkEh7IiDin2e-117" value="Send back &lt;br&gt;for re-evaluation" style="text;html=1;resizable=0;points=[];align=center;verticalAlign=middle;labelBackgroundColor=#ffffff;" parent="1veOBJNJqkEh7IiDin2e-116" vertex="1" connectable="0">
          <mxGeometry x="0.3487" y="1" relative="1" as="geometry">
            <mxPoint x="24" y="4" as="offset" />
          </mxGeometry>
        </mxCell>
        <mxCell id="1veOBJNJqkEh7IiDin2e-120" value="" style="edgeStyle=orthogonalEdgeStyle;rounded=0;orthogonalLoop=1;jettySize=auto;html=1;strokeColor=#330000;entryX=0.105;entryY=1.046;entryDx=0;entryDy=0;entryPerimeter=0;" parent="1" source="1veOBJNJqkEh7IiDin2e-107" target="1veOBJNJqkEh7IiDin2e-107" edge="1">
          <mxGeometry relative="1" as="geometry">
            <mxPoint x="680" y="1020" as="targetPoint" />
            <Array as="points">
              <mxPoint x="680" y="1000" />
              <mxPoint x="633" y="1000" />
            </Array>
          </mxGeometry>
        </mxCell>
        <mxCell id="1veOBJNJqkEh7IiDin2e-121" value="Assign to me" style="text;html=1;resizable=0;points=[];align=center;verticalAlign=middle;labelBackgroundColor=#ffffff;" parent="1veOBJNJqkEh7IiDin2e-120" vertex="1" connectable="0">
          <mxGeometry x="0.5026" y="2" relative="1" as="geometry">
            <mxPoint as="offset" />
          </mxGeometry>
        </mxCell>
        <mxCell id="1veOBJNJqkEh7IiDin2e-107" value="Test Result Approval" style="rounded=1;whiteSpace=wrap;html=1;strokeColor=#000000;fillColor=none;" parent="1" vertex="1">
          <mxGeometry x="620" y="880" width="120" height="60" as="geometry" />
        </mxCell>
        <mxCell id="1veOBJNJqkEh7IiDin2e-110" style="edgeStyle=orthogonalEdgeStyle;rounded=0;orthogonalLoop=1;jettySize=auto;html=1;exitX=0.25;exitY=0;exitDx=0;exitDy=0;strokeColor=#330000;" parent="1" edge="1">
          <mxGeometry relative="1" as="geometry">
            <mxPoint x="630" y="880" as="targetPoint" />
            <mxPoint x="670" y="880" as="sourcePoint" />
            <Array as="points">
              <mxPoint x="670" y="800" />
              <mxPoint x="620" y="800" />
              <mxPoint x="620" y="880" />
            </Array>
          </mxGeometry>
        </mxCell>
        <mxCell id="1veOBJNJqkEh7IiDin2e-111" value="(Re)Assign&amp;nbsp;&lt;br&gt;Owner" style="text;html=1;resizable=0;points=[];align=center;verticalAlign=middle;labelBackgroundColor=#ffffff;" parent="1veOBJNJqkEh7IiDin2e-110" vertex="1" connectable="0">
          <mxGeometry x="0.3939" y="1" relative="1" as="geometry">
            <mxPoint x="-0.5" y="7.5" as="offset" />
          </mxGeometry>
        </mxCell>
        <mxCell id="1veOBJNJqkEh7IiDin2e-112" style="edgeStyle=orthogonalEdgeStyle;rounded=0;orthogonalLoop=1;jettySize=auto;html=1;exitX=0.25;exitY=0;exitDx=0;exitDy=0;strokeColor=#330000;" parent="1" edge="1">
          <mxGeometry relative="1" as="geometry">
            <mxPoint x="710" y="880" as="targetPoint" />
            <mxPoint x="750" y="880" as="sourcePoint" />
            <Array as="points">
              <mxPoint x="750" y="800" />
              <mxPoint x="700" y="800" />
              <mxPoint x="700" y="880" />
            </Array>
          </mxGeometry>
        </mxCell>
        <mxCell id="1veOBJNJqkEh7IiDin2e-113" value="(Re)Assign&amp;nbsp;&lt;br&gt;Test Result &lt;br&gt;Approver&lt;br&gt;" style="text;html=1;resizable=0;points=[];align=center;verticalAlign=middle;labelBackgroundColor=#ffffff;" parent="1veOBJNJqkEh7IiDin2e-112" vertex="1" connectable="0">
          <mxGeometry x="0.3939" y="1" relative="1" as="geometry">
            <mxPoint x="18.5" y="6.5" as="offset" />
          </mxGeometry>
        </mxCell>
        <mxCell id="1veOBJNJqkEh7IiDin2e-114" style="edgeStyle=orthogonalEdgeStyle;rounded=0;orthogonalLoop=1;jettySize=auto;html=1;exitX=0;exitY=0.25;exitDx=0;exitDy=0;strokeColor=#330000;" parent="1" source="1veOBJNJqkEh7IiDin2e-107" edge="1">
          <mxGeometry relative="1" as="geometry">
            <mxPoint x="620" y="910" as="targetPoint" />
            <Array as="points">
              <mxPoint x="530" y="895" />
              <mxPoint x="530" y="910" />
              <mxPoint x="620" y="910" />
            </Array>
          </mxGeometry>
        </mxCell>
        <mxCell id="1veOBJNJqkEh7IiDin2e-115" value="Rejec/Abort" style="text;html=1;resizable=0;points=[];align=center;verticalAlign=middle;labelBackgroundColor=#ffffff;" parent="1veOBJNJqkEh7IiDin2e-114" vertex="1" connectable="0">
          <mxGeometry x="-0.373" y="-2" relative="1" as="geometry">
            <mxPoint as="offset" />
          </mxGeometry>
        </mxCell>
        <mxCell id="1veOBJNJqkEh7IiDin2e-124" value="" style="edgeStyle=orthogonalEdgeStyle;rounded=0;orthogonalLoop=1;jettySize=auto;html=1;strokeColor=#009900;" parent="1" source="1veOBJNJqkEh7IiDin2e-122" edge="1">
          <mxGeometry relative="1" as="geometry">
            <mxPoint x="775" y="1133" as="targetPoint" />
          </mxGeometry>
        </mxCell>
        <mxCell id="1veOBJNJqkEh7IiDin2e-126" style="edgeStyle=orthogonalEdgeStyle;rounded=0;orthogonalLoop=1;jettySize=auto;html=1;exitX=1;exitY=0.75;exitDx=0;exitDy=0;strokeColor=#009900;" parent="1" source="1veOBJNJqkEh7IiDin2e-122" edge="1">
          <mxGeometry relative="1" as="geometry">
            <mxPoint x="795" y="1193" as="targetPoint" />
            <Array as="points">
              <mxPoint x="695" y="1193" />
            </Array>
          </mxGeometry>
        </mxCell>
        <mxCell id="1veOBJNJqkEh7IiDin2e-127" value="Re-execute&lt;br&gt;Selectively" style="text;html=1;resizable=0;points=[];align=center;verticalAlign=middle;labelBackgroundColor=#ffffff;" parent="1veOBJNJqkEh7IiDin2e-126" vertex="1" connectable="0">
          <mxGeometry x="-0.3419" y="18" relative="1" as="geometry">
            <mxPoint x="50" y="18" as="offset" />
          </mxGeometry>
        </mxCell>
        <mxCell id="1veOBJNJqkEh7IiDin2e-131" value="" style="edgeStyle=orthogonalEdgeStyle;rounded=0;orthogonalLoop=1;jettySize=auto;html=1;strokeColor=#009900;" parent="1" source="1veOBJNJqkEh7IiDin2e-122" edge="1">
          <mxGeometry relative="1" as="geometry">
            <mxPoint x="495" y="1129" as="targetPoint" />
          </mxGeometry>
        </mxCell>
        <mxCell id="1veOBJNJqkEh7IiDin2e-132" value="Edit" style="text;html=1;resizable=0;points=[];align=center;verticalAlign=middle;labelBackgroundColor=#ffffff;" parent="1veOBJNJqkEh7IiDin2e-131" vertex="1" connectable="0">
          <mxGeometry x="0.1667" y="1" relative="1" as="geometry">
            <mxPoint as="offset" />
          </mxGeometry>
        </mxCell>
        <mxCell id="1veOBJNJqkEh7IiDin2e-136" value="" style="edgeStyle=orthogonalEdgeStyle;rounded=0;orthogonalLoop=1;jettySize=auto;html=1;strokeColor=#330000;" parent="1" source="1veOBJNJqkEh7IiDin2e-122" edge="1">
          <mxGeometry relative="1" as="geometry">
            <mxPoint x="679" y="1098" as="targetPoint" />
          </mxGeometry>
        </mxCell>
        <mxCell id="1veOBJNJqkEh7IiDin2e-137" value="Assign &lt;br&gt;to me" style="text;html=1;resizable=0;points=[];align=center;verticalAlign=middle;labelBackgroundColor=#ffffff;" parent="1veOBJNJqkEh7IiDin2e-136" vertex="1" connectable="0">
          <mxGeometry x="-0.4748" y="-12" relative="1" as="geometry">
            <mxPoint x="12" y="-12" as="offset" />
          </mxGeometry>
        </mxCell>
        <mxCell id="1veOBJNJqkEh7IiDin2e-122" value="Executed" style="rounded=1;whiteSpace=wrap;html=1;strokeColor=#000000;fillColor=none;" parent="1" vertex="1">
          <mxGeometry x="575" y="1099" width="120" height="60" as="geometry" />
        </mxCell>
        <mxCell id="1veOBJNJqkEh7IiDin2e-125" value="Re-execute" style="text;html=1;resizable=0;points=[];autosize=1;align=left;verticalAlign=top;spacingTop=-4;" parent="1" vertex="1">
          <mxGeometry x="723" y="1106" width="80" height="20" as="geometry" />
        </mxCell>
        <mxCell id="1veOBJNJqkEh7IiDin2e-128" style="edgeStyle=orthogonalEdgeStyle;rounded=0;orthogonalLoop=1;jettySize=auto;html=1;exitX=0.25;exitY=0;exitDx=0;exitDy=0;strokeColor=#330000;" parent="1" edge="1">
          <mxGeometry relative="1" as="geometry">
            <mxPoint x="580" y="1099" as="targetPoint" />
            <mxPoint x="600.238095238095" y="1098.904761904762" as="sourcePoint" />
            <Array as="points">
              <mxPoint x="600" y="1019" />
              <mxPoint x="550" y="1019" />
              <mxPoint x="550" y="1099" />
            </Array>
          </mxGeometry>
        </mxCell>
        <mxCell id="1veOBJNJqkEh7IiDin2e-129" value="(Re)Assign&amp;nbsp;&lt;br&gt;Owner" style="text;html=1;resizable=0;points=[];align=center;verticalAlign=middle;labelBackgroundColor=#ffffff;" parent="1veOBJNJqkEh7IiDin2e-128" vertex="1" connectable="0">
          <mxGeometry x="0.3939" y="1" relative="1" as="geometry">
            <mxPoint x="-0.5" y="7.5" as="offset" />
          </mxGeometry>
        </mxCell>
        <mxCell id="1veOBJNJqkEh7IiDin2e-133" style="edgeStyle=orthogonalEdgeStyle;rounded=0;orthogonalLoop=1;jettySize=auto;html=1;exitX=0.25;exitY=1;exitDx=0;exitDy=0;entryX=0.042;entryY=0.999;entryDx=0;entryDy=0;entryPerimeter=0;strokeColor=#330000;" parent="1" source="1veOBJNJqkEh7IiDin2e-122" target="1veOBJNJqkEh7IiDin2e-122" edge="1">
          <mxGeometry relative="1" as="geometry">
            <Array as="points">
              <mxPoint x="605" y="1200" />
              <mxPoint x="580" y="1200" />
            </Array>
          </mxGeometry>
        </mxCell>
        <mxCell id="1veOBJNJqkEh7IiDin2e-134" value="Set Effective &lt;br&gt;Result" style="text;html=1;resizable=0;points=[];align=center;verticalAlign=middle;labelBackgroundColor=#ffffff;" parent="1veOBJNJqkEh7IiDin2e-133" vertex="1" connectable="0">
          <mxGeometry x="0.3571" relative="1" as="geometry">
            <mxPoint as="offset" />
          </mxGeometry>
        </mxCell>
        <mxCell id="1veOBJNJqkEh7IiDin2e-138" value="" style="edgeStyle=orthogonalEdgeStyle;rounded=0;orthogonalLoop=1;jettySize=auto;html=1;strokeColor=#009900;" parent="1" source="1veOBJNJqkEh7IiDin2e-145" edge="1">
          <mxGeometry relative="1" as="geometry">
            <mxPoint x="293.5" y="1367" as="targetPoint" />
          </mxGeometry>
        </mxCell>
        <mxCell id="1veOBJNJqkEh7IiDin2e-139" style="edgeStyle=orthogonalEdgeStyle;rounded=0;orthogonalLoop=1;jettySize=auto;html=1;exitX=1;exitY=0.75;exitDx=0;exitDy=0;strokeColor=#009900;" parent="1" source="1veOBJNJqkEh7IiDin2e-145" edge="1">
          <mxGeometry relative="1" as="geometry">
            <mxPoint x="313.5" y="1427" as="targetPoint" />
            <Array as="points">
              <mxPoint x="213.5" y="1427" />
            </Array>
          </mxGeometry>
        </mxCell>
        <mxCell id="1veOBJNJqkEh7IiDin2e-140" value="Re-execute&lt;br&gt;Selectively" style="text;html=1;resizable=0;points=[];align=center;verticalAlign=middle;labelBackgroundColor=#ffffff;" parent="1veOBJNJqkEh7IiDin2e-139" vertex="1" connectable="0">
          <mxGeometry x="-0.3419" y="18" relative="1" as="geometry">
            <mxPoint x="50" y="18" as="offset" />
          </mxGeometry>
        </mxCell>
        <mxCell id="1veOBJNJqkEh7IiDin2e-141" value="" style="edgeStyle=orthogonalEdgeStyle;rounded=0;orthogonalLoop=1;jettySize=auto;html=1;strokeColor=#009900;" parent="1" source="1veOBJNJqkEh7IiDin2e-145" edge="1">
          <mxGeometry relative="1" as="geometry">
            <mxPoint x="13.5" y="1363" as="targetPoint" />
          </mxGeometry>
        </mxCell>
        <mxCell id="1veOBJNJqkEh7IiDin2e-142" value="Edit" style="text;html=1;resizable=0;points=[];align=center;verticalAlign=middle;labelBackgroundColor=#ffffff;" parent="1veOBJNJqkEh7IiDin2e-141" vertex="1" connectable="0">
          <mxGeometry x="0.1667" y="1" relative="1" as="geometry">
            <mxPoint as="offset" />
          </mxGeometry>
        </mxCell>
        <mxCell id="1veOBJNJqkEh7IiDin2e-143" value="" style="edgeStyle=orthogonalEdgeStyle;rounded=0;orthogonalLoop=1;jettySize=auto;html=1;strokeColor=#330000;" parent="1" source="1veOBJNJqkEh7IiDin2e-145" edge="1">
          <mxGeometry relative="1" as="geometry">
            <mxPoint x="197.5" y="1332" as="targetPoint" />
          </mxGeometry>
        </mxCell>
        <mxCell id="1veOBJNJqkEh7IiDin2e-144" value="Assign &lt;br&gt;to me" style="text;html=1;resizable=0;points=[];align=center;verticalAlign=middle;labelBackgroundColor=#ffffff;" parent="1veOBJNJqkEh7IiDin2e-143" vertex="1" connectable="0">
          <mxGeometry x="-0.4748" y="-12" relative="1" as="geometry">
            <mxPoint x="12" y="-12" as="offset" />
          </mxGeometry>
        </mxCell>
        <mxCell id="1veOBJNJqkEh7IiDin2e-145" value="Aborted" style="rounded=1;whiteSpace=wrap;html=1;strokeColor=#000000;fillColor=none;" parent="1" vertex="1">
          <mxGeometry x="93.5" y="1333" width="120" height="60" as="geometry" />
        </mxCell>
        <mxCell id="1veOBJNJqkEh7IiDin2e-146" value="Re-execute" style="text;html=1;resizable=0;points=[];autosize=1;align=left;verticalAlign=top;spacingTop=-4;" parent="1" vertex="1">
          <mxGeometry x="241.5" y="1340" width="80" height="20" as="geometry" />
        </mxCell>
        <mxCell id="1veOBJNJqkEh7IiDin2e-147" style="edgeStyle=orthogonalEdgeStyle;rounded=0;orthogonalLoop=1;jettySize=auto;html=1;exitX=0.25;exitY=0;exitDx=0;exitDy=0;strokeColor=#330000;" parent="1" edge="1">
          <mxGeometry relative="1" as="geometry">
            <mxPoint x="98.5" y="1333" as="targetPoint" />
            <mxPoint x="118.83333333333348" y="1333" as="sourcePoint" />
            <Array as="points">
              <mxPoint x="118.5" y="1253" />
              <mxPoint x="68.5" y="1253" />
              <mxPoint x="68.5" y="1333" />
            </Array>
          </mxGeometry>
        </mxCell>
        <mxCell id="1veOBJNJqkEh7IiDin2e-148" value="(Re)Assign&amp;nbsp;&lt;br&gt;Owner" style="text;html=1;resizable=0;points=[];align=center;verticalAlign=middle;labelBackgroundColor=#ffffff;" parent="1veOBJNJqkEh7IiDin2e-147" vertex="1" connectable="0">
          <mxGeometry x="0.3939" y="1" relative="1" as="geometry">
            <mxPoint x="-0.5" y="7.5" as="offset" />
          </mxGeometry>
        </mxCell>
        <mxCell id="1veOBJNJqkEh7IiDin2e-151" value="Re-Execute Selectively" style="rounded=1;whiteSpace=wrap;html=1;strokeColor=#000000;fillColor=none;" parent="1" vertex="1">
          <mxGeometry x="510" y="1320" width="120" height="60" as="geometry" />
        </mxCell>
        <mxCell id="1veOBJNJqkEh7IiDin2e-154" style="edgeStyle=orthogonalEdgeStyle;rounded=0;orthogonalLoop=1;jettySize=auto;html=1;exitX=0.25;exitY=0;exitDx=0;exitDy=0;strokeColor=#330000;" parent="1" edge="1">
          <mxGeometry relative="1" as="geometry">
            <mxPoint x="509.6724137931037" y="1319.8275862068965" as="targetPoint" />
            <mxPoint x="530.3620689655172" y="1319.8275862068965" as="sourcePoint" />
            <Array as="points">
              <mxPoint x="530" y="1240" />
              <mxPoint x="480" y="1240" />
              <mxPoint x="480" y="1320" />
            </Array>
          </mxGeometry>
        </mxCell>
        <mxCell id="1veOBJNJqkEh7IiDin2e-155" value="(Re)Assign&amp;nbsp;&lt;br&gt;Owner" style="text;html=1;resizable=0;points=[];align=center;verticalAlign=middle;labelBackgroundColor=#ffffff;" parent="1veOBJNJqkEh7IiDin2e-154" vertex="1" connectable="0">
          <mxGeometry x="0.3939" y="1" relative="1" as="geometry">
            <mxPoint x="-0.5" y="7.5" as="offset" />
          </mxGeometry>
        </mxCell>
        <mxCell id="1veOBJNJqkEh7IiDin2e-156" value="" style="edgeStyle=orthogonalEdgeStyle;rounded=0;orthogonalLoop=1;jettySize=auto;html=1;strokeColor=#009900;" parent="1" edge="1">
          <mxGeometry relative="1" as="geometry">
            <mxPoint x="560" y="1380" as="sourcePoint" />
            <mxPoint x="540.5" y="1440.0000000000002" as="targetPoint" />
          </mxGeometry>
        </mxCell>
        <mxCell id="1veOBJNJqkEh7IiDin2e-157" value="Abort" style="text;html=1;resizable=0;points=[];align=center;verticalAlign=middle;labelBackgroundColor=#ffffff;" parent="1veOBJNJqkEh7IiDin2e-156" vertex="1" connectable="0">
          <mxGeometry x="-0.3652" y="-1" relative="1" as="geometry">
            <mxPoint x="1" y="24.5" as="offset" />
          </mxGeometry>
        </mxCell>
        <mxCell id="1veOBJNJqkEh7IiDin2e-158" value="" style="edgeStyle=orthogonalEdgeStyle;rounded=0;orthogonalLoop=1;jettySize=auto;html=1;strokeColor=#330000;entryX=0.292;entryY=0.007;entryDx=0;entryDy=0;entryPerimeter=0;" parent="1" target="1veOBJNJqkEh7IiDin2e-151" edge="1">
          <mxGeometry relative="1" as="geometry">
            <mxPoint x="604" y="1299.9999999999998" as="targetPoint" />
            <mxPoint x="580" y="1320" as="sourcePoint" />
            <Array as="points">
              <mxPoint x="580" y="1320" />
              <mxPoint x="580" y="1300" />
              <mxPoint x="545" y="1300" />
            </Array>
          </mxGeometry>
        </mxCell>
        <mxCell id="1veOBJNJqkEh7IiDin2e-159" value="Assign &lt;br&gt;to me" style="text;html=1;resizable=0;points=[];align=center;verticalAlign=middle;labelBackgroundColor=#ffffff;" parent="1veOBJNJqkEh7IiDin2e-158" vertex="1" connectable="0">
          <mxGeometry x="-0.4748" y="-12" relative="1" as="geometry">
            <mxPoint x="-10" y="2.5" as="offset" />
          </mxGeometry>
        </mxCell>
        <mxCell id="1veOBJNJqkEh7IiDin2e-160" style="edgeStyle=orthogonalEdgeStyle;rounded=0;orthogonalLoop=1;jettySize=auto;html=1;exitX=0.75;exitY=0;exitDx=0;exitDy=0;strokeColor=#330000;entryX=1.004;entryY=0.003;entryDx=0;entryDy=0;entryPerimeter=0;" parent="1" edge="1">
          <mxGeometry relative="1" as="geometry">
            <mxPoint x="629.8965517241381" y="1319.4137931034484" as="targetPoint" />
            <mxPoint x="599.5517241379312" y="1318.7241379310346" as="sourcePoint" />
            <Array as="points">
              <mxPoint x="600" y="1239" />
              <mxPoint x="630" y="1239" />
            </Array>
          </mxGeometry>
        </mxCell>
        <mxCell id="1veOBJNJqkEh7IiDin2e-161" value="Start Execution" style="text;html=1;resizable=0;points=[];align=center;verticalAlign=middle;labelBackgroundColor=#ffffff;" parent="1veOBJNJqkEh7IiDin2e-160" vertex="1" connectable="0">
          <mxGeometry x="0.2314" y="-1" relative="1" as="geometry">
            <mxPoint x="0.5" y="23" as="offset" />
          </mxGeometry>
        </mxCell>
        <mxCell id="1veOBJNJqkEh7IiDin2e-162" value="" style="edgeStyle=orthogonalEdgeStyle;rounded=0;orthogonalLoop=1;jettySize=auto;html=1;strokeColor=#009900;" parent="1" edge="1">
          <mxGeometry relative="1" as="geometry">
            <mxPoint x="630" y="1349.5689655172414" as="sourcePoint" />
            <mxPoint x="750" y="1349" as="targetPoint" />
            <Array as="points">
              <mxPoint x="650.5" y="1349.5" />
              <mxPoint x="650.5" y="1349.5" />
            </Array>
          </mxGeometry>
        </mxCell>
        <mxCell id="1veOBJNJqkEh7IiDin2e-163" value="Submit for &lt;br&gt;Result Approval" style="text;html=1;resizable=0;points=[];align=center;verticalAlign=middle;labelBackgroundColor=#ffffff;" parent="1veOBJNJqkEh7IiDin2e-162" vertex="1" connectable="0">
          <mxGeometry x="-0.4792" y="11" relative="1" as="geometry">
            <mxPoint x="34" y="12.5" as="offset" />
          </mxGeometry>
        </mxCell>
        <mxCell id="1veOBJNJqkEh7IiDin2e-164" value="Re-Execute" style="rounded=1;whiteSpace=wrap;html=1;strokeColor=#000000;fillColor=none;" parent="1" vertex="1">
          <mxGeometry x="504.5" y="1554.2586206896551" width="120" height="60" as="geometry" />
        </mxCell>
        <mxCell id="1veOBJNJqkEh7IiDin2e-165" style="edgeStyle=orthogonalEdgeStyle;rounded=0;orthogonalLoop=1;jettySize=auto;html=1;exitX=0.25;exitY=0;exitDx=0;exitDy=0;strokeColor=#330000;" parent="1" edge="1">
          <mxGeometry relative="1" as="geometry">
            <mxPoint x="504.39655172413813" y="1553.9827586206898" as="targetPoint" />
            <mxPoint x="525.0862068965516" y="1553.9827586206898" as="sourcePoint" />
            <Array as="points">
              <mxPoint x="524.5" y="1474.2586206896551" />
              <mxPoint x="474.5" y="1474.2586206896551" />
              <mxPoint x="474.5" y="1554.2586206896551" />
            </Array>
          </mxGeometry>
        </mxCell>
        <mxCell id="1veOBJNJqkEh7IiDin2e-166" value="(Re)Assign&amp;nbsp;&lt;br&gt;Owner" style="text;html=1;resizable=0;points=[];align=center;verticalAlign=middle;labelBackgroundColor=#ffffff;" parent="1veOBJNJqkEh7IiDin2e-165" vertex="1" connectable="0">
          <mxGeometry x="0.3939" y="1" relative="1" as="geometry">
            <mxPoint x="-0.5" y="7.5" as="offset" />
          </mxGeometry>
        </mxCell>
        <mxCell id="1veOBJNJqkEh7IiDin2e-167" value="" style="edgeStyle=orthogonalEdgeStyle;rounded=0;orthogonalLoop=1;jettySize=auto;html=1;strokeColor=#009900;" parent="1" edge="1">
          <mxGeometry relative="1" as="geometry">
            <mxPoint x="554.5" y="1614.2586206896553" as="sourcePoint" />
            <mxPoint x="535" y="1674.2586206896551" as="targetPoint" />
          </mxGeometry>
        </mxCell>
        <mxCell id="1veOBJNJqkEh7IiDin2e-168" value="Abort" style="text;html=1;resizable=0;points=[];align=center;verticalAlign=middle;labelBackgroundColor=#ffffff;" parent="1veOBJNJqkEh7IiDin2e-167" vertex="1" connectable="0">
          <mxGeometry x="-0.3652" y="-1" relative="1" as="geometry">
            <mxPoint x="1" y="24.5" as="offset" />
          </mxGeometry>
        </mxCell>
        <mxCell id="1veOBJNJqkEh7IiDin2e-169" value="" style="edgeStyle=orthogonalEdgeStyle;rounded=0;orthogonalLoop=1;jettySize=auto;html=1;strokeColor=#330000;entryX=0.292;entryY=0.007;entryDx=0;entryDy=0;entryPerimeter=0;" parent="1" target="1veOBJNJqkEh7IiDin2e-164" edge="1">
          <mxGeometry relative="1" as="geometry">
            <mxPoint x="598.5" y="1534.258620689655" as="targetPoint" />
            <mxPoint x="574.7413793103451" y="1553.9827586206898" as="sourcePoint" />
            <Array as="points">
              <mxPoint x="574.5" y="1554.2586206896551" />
              <mxPoint x="574.5" y="1534.2586206896551" />
              <mxPoint x="539.5" y="1534.2586206896551" />
            </Array>
          </mxGeometry>
        </mxCell>
        <mxCell id="1veOBJNJqkEh7IiDin2e-170" value="Assign &lt;br&gt;to me" style="text;html=1;resizable=0;points=[];align=center;verticalAlign=middle;labelBackgroundColor=#ffffff;" parent="1veOBJNJqkEh7IiDin2e-169" vertex="1" connectable="0">
          <mxGeometry x="-0.4748" y="-12" relative="1" as="geometry">
            <mxPoint x="-10" y="2.5" as="offset" />
          </mxGeometry>
        </mxCell>
        <mxCell id="1veOBJNJqkEh7IiDin2e-171" style="edgeStyle=orthogonalEdgeStyle;rounded=0;orthogonalLoop=1;jettySize=auto;html=1;exitX=0.75;exitY=0;exitDx=0;exitDy=0;strokeColor=#330000;entryX=1.004;entryY=0.003;entryDx=0;entryDy=0;entryPerimeter=0;" parent="1" edge="1">
          <mxGeometry relative="1" as="geometry">
            <mxPoint x="624.3965517241381" y="1553.9827586206898" as="targetPoint" />
            <mxPoint x="594.0517241379312" y="1553.2931034482758" as="sourcePoint" />
            <Array as="points">
              <mxPoint x="594.5" y="1473.2586206896551" />
              <mxPoint x="624.5" y="1473.2586206896551" />
            </Array>
          </mxGeometry>
        </mxCell>
        <mxCell id="1veOBJNJqkEh7IiDin2e-172" value="Start Execution" style="text;html=1;resizable=0;points=[];align=center;verticalAlign=middle;labelBackgroundColor=#ffffff;" parent="1veOBJNJqkEh7IiDin2e-171" vertex="1" connectable="0">
          <mxGeometry x="0.2314" y="-1" relative="1" as="geometry">
            <mxPoint x="0.5" y="23" as="offset" />
          </mxGeometry>
        </mxCell>
        <mxCell id="1veOBJNJqkEh7IiDin2e-173" value="" style="edgeStyle=orthogonalEdgeStyle;rounded=0;orthogonalLoop=1;jettySize=auto;html=1;strokeColor=#009900;" parent="1" edge="1">
          <mxGeometry relative="1" as="geometry">
            <mxPoint x="624.3965517241381" y="1583.6379310344828" as="sourcePoint" />
            <mxPoint x="744.3965517241381" y="1582.948275862069" as="targetPoint" />
            <Array as="points">
              <mxPoint x="645" y="1583.7586206896551" />
              <mxPoint x="645" y="1583.7586206896551" />
            </Array>
          </mxGeometry>
        </mxCell>
        <mxCell id="1veOBJNJqkEh7IiDin2e-174" value="Submit for &lt;br&gt;Result Approval" style="text;html=1;resizable=0;points=[];align=center;verticalAlign=middle;labelBackgroundColor=#ffffff;" parent="1veOBJNJqkEh7IiDin2e-173" vertex="1" connectable="0">
          <mxGeometry x="-0.4792" y="11" relative="1" as="geometry">
            <mxPoint x="34" y="12.5" as="offset" />
          </mxGeometry>
        </mxCell>
        <mxCell id="nGkeoCvwHN5AzCZAQjQk-6" value="" style="edgeStyle=orthogonalEdgeStyle;rounded=0;orthogonalLoop=1;jettySize=auto;html=1;" edge="1" parent="1" source="nGkeoCvwHN5AzCZAQjQk-1">
          <mxGeometry relative="1" as="geometry">
            <mxPoint x="730" y="160" as="targetPoint" />
            <Array as="points">
              <mxPoint x="790" y="199" />
              <mxPoint x="730" y="199" />
            </Array>
          </mxGeometry>
        </mxCell>
        <mxCell id="nGkeoCvwHN5AzCZAQjQk-7" value="Continue&lt;div&gt;Execution&lt;/div&gt;" style="edgeLabel;html=1;align=center;verticalAlign=middle;resizable=0;points=[];" vertex="1" connectable="0" parent="nGkeoCvwHN5AzCZAQjQk-6">
          <mxGeometry x="-0.2351" y="1" relative="1" as="geometry">
            <mxPoint x="-14" y="-8" as="offset" />
          </mxGeometry>
        </mxCell>
        <mxCell id="nGkeoCvwHN5AzCZAQjQk-1" value="Execution" style="rounded=1;whiteSpace=wrap;html=1;" vertex="1" parent="1">
          <mxGeometry x="703" y="99" width="120" height="60" as="geometry" />
        </mxCell>
      </root>
    </mxGraphModel>
  </diagram>
</mxfile>
